{
  "accessors": [
    {
      "bufferView": 2,
      "componentType": 5126,
      "count": 33453,
      "max": [
        65.157623291015625,
        180.91270446777344,
        13.447837829589844
      ],
      "min": [
        -64.621986389160156,
        18.693902969360352,
        -15.939155578613281
      ],
      "type": "VEC3"
    },
    {
      "bufferView": 2,
      "byteOffset": 401436,
      "componentType": 5126,
      "count": 33453,
      "max": [
        0.99997889995574951,
        0.99997913837432861,
        0.99999618530273438
      ],
      "min": [
        -0.99992465972900391,
        -0.99986076354980469,
        -0.99998253583908081
      ],
      "type": "VEC3"
    },
    {
      "bufferView": 3,
      "componentType": 5126,
      "count": 33453,
      "max": [
        0.99999910593032837,
        0.99952638149261475,
        0.99999213218688965,
        1
      ],
      "min": [
        -0.99999958276748657,
        -0.99986982345581055,
        -0.99982190132141113,
        -1
      ],
      "type": "VEC4"
    },
    {
      "bufferView": 1,
      "componentType": 5126,
      "count": 33453,
      "max": [
        0.32672780752182007,
        0.47440969944000244
      ],
      "min": [
        -0.38070809841156006,
        -0.53653246164321899
      ],
      "type": "VEC2"
    },
    {
      "bufferView": 0,
      "componentType": 5125,
      "count": 187680,
      "max": [
        33452
      ],
      "min": [
        0
      ],
      "type": "SCALAR"
    },
    {
      "bufferView": 2,
      "byteOffset": 802872,
      "componentType": 5126,
      "count": 598,
      "max": [
        6.8717584609985352,
        175.29795837402344,
        12.004266738891602
      ],
      "min": [
        -6.8154182434082031,
        160.57606506347656,
        4.1610164642333984
      ],
      "type": "VEC3"
    },
    {
      "bufferView": 2,
      "byteOffset": 810048,
      "componentType": 5126,
      "count": 598,
      "max": [
        0.94233244657516479,
        0.49367088079452515,
        0.9976879358291626
      ],
      "min": [
        -0.95068067312240601,
        -0.68201130628585815,
        0.30732560157775879
      ],
      "type": "VEC3"
    },
    {
      "bufferView": 3,
      "byteOffset": 535248,
      "componentType": 5126,
      "count": 598,
      "max": [
        0.99702852964401245,
        0.20349463820457458,
        0.9289405345916748,
        1
      ],
      "min": [
        -0.97992271184921265,
        -0.5289541482925415,
        -0.11005894094705582,
        -1
      ],
      "type": "VEC4"
    },
    {
      "bufferView": 1,
      "byteOffset": 267624,
      "componentType": 5126,
      "count": 598,
      "max": [
        0.075336791574954987,
        0.038621377199888229
      ],
      "min": [
        0.017555773258209229,
        -0.087573595345020294
      ],
      "type": "VEC2"
    },
    {
      "bufferView": 0,
      "byteOffset": 750720,
      "componentType": 5125,
      "count": 2910,
      "max": [
        597
      ],
      "min": [
        0
      ],
      "type": "SCALAR"
    },
    {
      "bufferView": 2,
      "byteOffset": 817224,
      "componentType": 5126,
      "count": 5480,
      "max": [
        63.112575531005859,
        159.75448608398438,
        13.07463264465332
      ],
      "min": [
        -62.081104278564453,
        19.223110198974609,
        -14.324234008789062
      ],
      "type": "VEC3"
    },
    {
      "bufferView": 2,
      "byteOffset": 882984,
      "componentType": 5126,
      "count": 5480,
      "max": [
        0.99911028146743774,
        0.9887467622756958,
        0.99999022483825684
      ],
      "min": [
        -0.99972426891326904,
        -0.97516876459121704,
        -0.9999200701713562
      ],
      "type": "VEC3"
    },
    {
      "bufferView": 3,
      "byteOffset": 544816,
      "componentType": 5126,
      "count": 5480,
      "max": [
        0.9999660849571228,
        0.99303287267684937,
        0.98979783058166504,
        1
      ],
      "min": [
        -0.99999755620956421,
        -0.88416892290115356,
        -0.96778148412704468,
        -1
      ],
      "type": "VEC4"
    },
    {
      "bufferView": 1,
      "byteOffset": 272408,
      "componentType": 5126,
      "count": 5480,
      "max": [
        0.31782224774360657,
        0.45840469002723694
      ],
      "min": [
        -0.36752277612686157,
        -0.52883791923522949
      ],
      "type": "VEC2"
    },
    {
      "bufferView": 0,
      "byteOffset": 762360,
      "componentType": 5125,
      "count": 26472,
      "max": [
        5479
      ],
      "min": [
        0
      ],
      "type": "SCALAR"
    },
    {
      "bufferView": 2,
      "byteOffset": 948744,
      "componentType": 5126,
      "count": 41826,
      "max": [
        86.385917663574219,
        180.48191833496094,
        17.1400146484375
      ],
      "min": [
        -87.137962341308594,
        0,
        -15.227877616882324
      ],
      "type": "VEC3"
    },
    {
      "bufferView": 2,
      "byteOffset": 1450656,
      "componentType": 5126,
      "count": 41826,
      "max": [
        0.99998748302459717,
        0.99997395277023315,
        0.99999779462814331
      ],
      "min": [
        -0.99993085861206055,
        -0.99999386072158813,
        -0.99996227025985718
      ],
      "type": "VEC3"
    },
    {
      "bufferView": 3,
      "byteOffset": 632496,
      "componentType": 5126,
      "count": 41826,
      "max": [
        0.99999713897705078,
        0.99997192621231079,
        0.99997913837432861,
        1
      ],
      "min": [
        -0.99999690055847168,
        -0.99986958503723145,
        -0.999908447265625,
        -1
      ],
      "type": "VEC4"
    },
    {
      "bufferView": 1,
      "byteOffset": 316248,
      "componentType": 5126,
      "count": 41826,
      "max": [
        0.99247002601623535,
        0.9978560209274292
      ],
      "min": [
        0.0049899998120963573,
        0.0083180665969848633
      ],
      "type": "VEC2"
    },
    {
      "bufferView": 0,
      "byteOffset": 868248,
      "componentType": 5125,
      "count": 86784,
      "max": [
        41825
      ],
      "min": [
        0
      ],
      "type": "SCALAR"
    }
  ],
  "asset": {
    "extras": {
      "author": "specter (https://sketchfab.com/specter)",
      "license": "CC-BY-4.0 (http://creativecommons.org/licenses/by/4.0/)",
      "source": "https://sketchfab.com/3d-models/hazmat-suit-095694921e914ae889e91767ed680e4b",
      "title": "Hazmat Suit"
    },
    "generator": "Sketchfab-4.97.1",
    "version": "2.0"
  },
  "bufferViews": [
    {
      "buffer": 0,
      "byteLength": 1215384,
      "byteOffset": 0,
      "name": "floatBufferViews",
      "target": 34963
    },
    {
      "buffer": 0,
      "byteLength": 650856,
      "byteOffset": 1215384,
      "byteStride": 8,
      "name": "floatBufferViews",
      "target": 34962
    },
    {
      "buffer": 0,
      "byteLength": 1952568,
      "byteOffset": 1866240,
      "byteStride": 12,
      "name": "floatBufferViews",
      "target": 34962
    },
    {
      "buffer": 0,
      "byteLength": 1301712,
      "byteOffset": 3818808,
      "byteStride": 16,
      "name": "floatBufferViews",
      "target": 34962
    }
  ],
  "buffers": [
    {
      "byteLength": 5120520,
      "uri": "scene.bin"
    }
  ],
  "extensionsRequired": [
    "KHR_materials_pbrSpecularGlossiness"
  ],
  "extensionsUsed": [
    "KHR_materials_pbrSpecularGlossiness"
  ],
  "materials": [
    {
      "doubleSided": true,
      "emissiveFactor": [
        0,
        0,
        0
      ],
      "extensions": {
        "KHR_materials_pbrSpecularGlossiness": {
          "diffuseFactor": [
            0.94700377252471712,
            0.96512957320000003,
            0.0049198589892879181,
            1
          ],
          "glossinessFactor": 0.88586128050000001,
          "specularFactor": [
            0.15415396340000001,
            0.15415396340000001,
            0.15415396340000001
          ]
        }
      },
      "name": "Material3756"
    },
    {
      "doubleSided": true,
      "emissiveFactor": [
        0,
        0,
        0
      ],
      "extensions": {
        "KHR_materials_pbrSpecularGlossiness": {
          "diffuseFactor": [
            0.2943978659,
            0.2943978659,
            0.2943978659,
            1
          ],
          "glossinessFactor": 0.58098323169999999,
          "specularFactor": [
            0.12976371950000001,
            0.12976371950000001,
            0.12976371950000001
          ]
        }
      },
      "name": "FABRIC_3_FRONT_31973"
    },
    {
      "doubleSided": true,
      "emissiveFactor": [
        0,
        0,
        0
      ],
      "extensions": {
        "KHR_materials_pbrSpecularGlossiness": {
          "diffuseFactor": [
            0.27610518290000002,
            0.25943783534828502,
            0.034664162543087462,
            1
          ],
          "glossinessFactor": 0.68464176830000001,
          "specularFactor": [
            0.36756859759999999,
            0.36756859759999999,
            0.36756859759999999
          ]
        }
      },
      "name": "Material31977"
    },
    {
      "doubleSided": true,
      "emissiveFactor": [
        0,
        0,
        0
      ],
      "extensions": {
        "KHR_materials_pbrSpecularGlossiness": {
          "diffuseFactor": [
            0.70849910102829483,
            0.50681130559185672,
            0.24360152599369642,
            1
          ],
          "glossinessFactor": 0.55049542679999997,
          "specularFactor": [
            0.17244664630000001,
            0.17244664630000001,
            0.17244664630000001
          ]
        }
      },
      "name": "Material3617"
    }
  ],
  "meshes": [
    {
      "name": "Hazmat_fbx_Material3756_0",
      "primitives": [
        {
          "attributes": {
            "NORMAL": 1,
            "POSITION": 0,
            "TANGENT": 2,
            "TEXCOORD_0": 3
          },
          "indices": 4,
          "material": 0,
          "mode": 4
        }
      ]
    },
    {
      "name": "Hazmat_fbx_FABRIC 3_FRONT_31973_0",
      "primitives": [
        {
          "attributes": {
            "NORMAL": 6,
            "POSITION": 5,
            "TANGENT": 7,
            "TEXCOORD_0": 8
          },
          "indices": 9,
          "material": 1,
          "mode": 4
        }
      ]
    },
    {
      "name": "Hazmat_fbx_Material31977_0",
      "primitives": [
        {
          "attributes": {
            "NORMAL": 11,
            "POSITION": 10,
            "TANGENT": 12,
            "TEXCOORD_0": 13
          },
          "indices": 14,
          "material": 2,
          "mode": 4
        }
      ]
    },
    {
      "name": "BodyShape_Material3617_0",
      "primitives": [
        {
          "attributes": {
            "NORMAL": 16,
            "POSITION": 15,
            "TANGENT": 17,
            "TEXCOORD_0": 18
          },
          "indices": 19,
          "material": 3,
          "mode": 4
        }
      ]
    }
  ],
  "nodes": [
    {
      "children": [
        1
      ],
      "name": "RootNode (gltf orientation matrix)",
      "rotation": [
        -0.70710678118654746,
        -0,
        -0,
        0.70710678118654757
      ]
    },
    {
      "children": [
        2
      ],
      "name": "RootNode (model correction matrix)"
    },
    {
      "children": [
        3
      ],
      "matrix": [
        1,
        0,
        0,
        0,
        0,
        0,
        1,
        0,
        0,
        -1,
        0,
        0,
        0,
        0,
        0,
        1
      ],
      "name": "44d12f2d4dce4531b2b2fd08ccffa0cd.fbx"
    },
    {
      "children": [
        4,
        8
      ],
      "name": "RootNode"
    },
    {
      "children": [
        5,
        6,
        7
      ],
      "matrix": [
        10,
        0,
        0,
        0,
        0,
        10,
        0,
        0,
        0,
        0,
        10,
        0,
        0,
        0,
        0,
        1
      ],
      "name": "Hazmat_fbx"
    },
    {
      "mesh": 0,
      "name": "Hazmat_fbx_Material3756_0"
    },
    {
      "mesh": 1,
      "name": "Hazmat_fbx_FABRIC 3_FRONT_31973_0"
    },
    {
      "mesh": 2,
      "name": "Hazmat_fbx_Material31977_0"
    },
    {
      "children": [
        9
      ],
      "matrix": [
        10,
        0,
        0,
        0,
        0,
        10,
        0,
        0,
        0,
        0,
        10,
        0,
        0,
        0,
        0,
        1
      ],
      "name": "BodyShape"
    },
    {
      "mesh": 3,
      "name": "BodyShape_Material3617_0"
    }
  ],
  "scene": 0,
  "scenes": [
    {
      "name": "OSG_Scene",
      "nodes": [
        0
      ]
    }
  ]
}

