{
  "accessors": [
    {
      "bufferView": 2,
      "componentType": 5126,
      "count": 181,
      "max": [
        1.3000000715255737,
        2.7000000476837158,
        1
      ],
      "min": [
        -1.3000000715255737,
        -0.20646479725837708,
        -1
      ],
      "type": "VEC3"
    },
    {
      "bufferView": 2,
      "byteOffset": 2172,
      "componentType": 5126,
      "count": 181,
      "max": [
        1,
        1,
        1
      ],
      "min": [
        -1,
        -1,
        -1
      ],
      "type": "VEC3"
    },
    {
      "bufferView": 1,
      "componentType": 5126,
      "count": 181,
      "max": [
        1,
        2.2400002479553223
      ],
      "min": [
        0,
        -1.2400001287460327
      ],
      "type": "VEC2"
    },
    {
      "bufferView": 0,
      "componentType": 5125,
      "count": 456,
      "max": [
        180
      ],
      "min": [
        0
      ],
      "type": "SCALAR"
    },
    {
      "bufferView": 2,
      "byteOffset": 4344,
      "componentType": 5126,
      "count": 579,
      "max": [
        1.1700000762939453,
        2.6549999713897705,
        1.0470283031463623
      ],
      "min": [
        -1.1700000762939453,
        0.044999957084655762,
        -0.89486050605773926
      ],
      "type": "VEC3"
    },
    {
      "bufferView": 2,
      "byteOffset": 11292,
      "componentType": 5126,
      "count": 579,
      "max": [
        1,
        1,
        1
      ],
      "min": [
        -1,
        -1,
        -1
      ],
      "type": "VEC3"
    },
    {
      "bufferView": 1,
      "byteOffset": 1448,
      "componentType": 5126,
      "count": 579,
      "max": [
        0.95000004768371582,
        0.71307927370071411
      ],
      "min": [
        0,
        0
      ],
      "type": "VEC2"
    },
    {
      "bufferView": 0,
      "byteOffset": 1824,
      "componentType": 5125,
      "count": 1494,
      "max": [
        578
      ],
      "min": [
        0
      ],
      "type": "SCALAR"
    },
    {
      "bufferView": 2,
      "byteOffset": 18240,
      "componentType": 5126,
      "count": 65532,
      "max": [
        0.67492502927780151,
        0.12491551786661148,
        0.53730183839797974
      ],
      "min": [
        -0.65091502666473389,
        -0.059147808700799942,
        -0.71621710062026978
      ],
      "type": "VEC3"
    },
    {
      "bufferView": 2,
      "byteOffset": 804624,
      "componentType": 5126,
      "count": 65532,
      "max": [
        0.98859196901321411,
        1,
        0.9944450855255127
      ],
      "min": [
        -0.98498255014419556,
        -1,
        -0.99940073490142822
      ],
      "type": "VEC3"
    },
    {
      "bufferView": 1,
      "byteOffset": 6080,
      "componentType": 5126,
      "count": 65532,
      "max": [
        1.0000002384185791,
        1.0000002384185791
      ],
      "min": [
        0,
        0
      ],
      "type": "VEC2"
    },
    {
      "bufferView": 0,
      "byteOffset": 7800,
      "componentType": 5125,
      "count": 386559,
      "max": [
        65531
      ],
      "min": [
        0
      ],
      "type": "SCALAR"
    },
    {
      "bufferView": 2,
      "byteOffset": 1591008,
      "componentType": 5126,
      "count": 4795,
      "max": [
        0.67694562673568726,
        0.12232555449008942,
        0.53737497329711914
      ],
      "min": [
        -0.55941766500473022,
        -0.057580940425395966,
        -0.72124040126800537
      ],
      "type": "VEC3"
    },
    {
      "bufferView": 2,
      "byteOffset": 1648548,
      "componentType": 5126,
      "count": 4795,
      "max": [
        0.98859196901321411,
        1,
        0.99977517127990723
      ],
      "min": [
        -0.97366344928741455,
        -0.99998009204864502,
        -0.99990618228912354
      ],
      "type": "VEC3"
    },
    {
      "bufferView": 1,
      "byteOffset": 530336,
      "componentType": 5126,
      "count": 4795,
      "max": [
        1.0000002384185791,
        1.0000002384185791
      ],
      "min": [
        0,
        0
      ],
      "type": "VEC2"
    },
    {
      "bufferView": 0,
      "byteOffset": 1554036,
      "componentType": 5125,
      "count": 25089,
      "max": [
        4794
      ],
      "min": [
        0
      ],
      "type": "SCALAR"
    },
    {
      "bufferView": 2,
      "byteOffset": 1706088,
      "componentType": 5126,
      "count": 1413,
      "max": [
        0.20214354991912842,
        0.43546402454376221,
        0.20214338600635529
      ],
      "min": [
        -0.20214347541332245,
        -0.092505186796188354,
        -0.202143594622612
      ],
      "type": "VEC3"
    },
    {
      "bufferView": 2,
      "byteOffset": 1723044,
      "componentType": 5126,
      "count": 1413,
      "max": [
        0.99997210502624512,
        0.97332215309143066,
        0.99997210502624512
      ],
      "min": [
        -0.99997210502624512,
        -1,
        -0.99997210502624512
      ],
      "type": "VEC3"
    },
    {
      "bufferView": 1,
      "byteOffset": 568696,
      "componentType": 5126,
      "count": 1413,
      "max": [
        7.99993896484375,
        1.0000001192092896
      ],
      "min": [
        -0.99212646484375,
        -0.99993896484375
      ],
      "type": "VEC2"
    },
    {
      "bufferView": 0,
      "byteOffset": 1654392,
      "componentType": 5125,
      "count": 7284,
      "max": [
        1412
      ],
      "min": [
        0
      ],
      "type": "SCALAR"
    }
  ],
  "asset": {
    "extras": {
      "author": "MOJackal (https://sketchfab.com/MOJackal)",
      "license": "CC-BY-4.0 (http://creativecommons.org/licenses/by/4.0/)",
      "source": "https://sketchfab.com/3d-models/simple-nightstand-26d08ce396454ee3bd56ffa160e6538b",
      "title": "Simple Nightstand"
    },
    "generator": "Sketchfab-8.87.0",
    "version": "2.0"
  },
  "bufferViews": [
    {
      "buffer": 0,
      "byteLength": 1683528,
      "byteOffset": 0,
      "name": "floatBufferViews",
      "target": 34963
    },
    {
      "buffer": 0,
      "byteLength": 580000,
      "byteOffset": 1683528,
      "byteStride": 8,
      "name": "floatBufferViews",
      "target": 34962
    },
    {
      "buffer": 0,
      "byteLength": 1740000,
      "byteOffset": 2263528,
      "byteStride": 12,
      "name": "floatBufferViews",
      "target": 34962
    }
  ],
  "buffers": [
    {
      "byteLength": 4003528,
      "uri": "scene.bin"
    }
  ],
  "images": [
    {
      "uri": "textures/Wood_2_baseColor.png"
    },
    {
      "uri": "textures/Wood_3_baseColor.png"
    },
    {
      "uri": "textures/Gray_Towel_baseColor.png"
    }
  ],
  "materials": [
    {
      "doubleSided": true,
      "emissiveFactor": [
        0,
        0,
        0
      ],
      "name": "Wood_2",
      "pbrMetallicRoughness": {
        "baseColorFactor": [
          1,
          1,
          1,
          1
        ],
        "baseColorTexture": {
          "index": 0,
          "texCoord": 0
        },
        "metallicFactor": 0,
        "roughnessFactor": 0.5
      }
    },
    {
      "doubleSided": true,
      "emissiveFactor": [
        0,
        0,
        0
      ],
      "name": "Wood_3",
      "pbrMetallicRoughness": {
        "baseColorFactor": [
          1,
          1,
          1,
          1
        ],
        "baseColorTexture": {
          "index": 1,
          "texCoord": 0
        },
        "metallicFactor": 0,
        "roughnessFactor": 0.5
      }
    },
    {
      "doubleSided": true,
      "emissiveFactor": [
        0,
        0,
        0
      ],
      "name": "Gray_Towel",
      "pbrMetallicRoughness": {
        "baseColorFactor": [
          1,
          1,
          1,
          1
        ],
        "baseColorTexture": {
          "index": 2,
          "texCoord": 0
        },
        "metallicFactor": 0,
        "roughnessFactor": 0.5
      }
    },
    {
      "alphaMode": "BLEND",
      "doubleSided": true,
      "emissiveFactor": [
        0,
        0,
        0
      ],
      "name": "Glass",
      "pbrMetallicRoughness": {
        "baseColorFactor": [
          0.80000000000000004,
          0.80000000000000004,
          0.80000000000000004,
          0.018320610687022901
        ],
        "metallicFactor": 0,
        "roughnessFactor": 0.10000000000000001
      }
    }
  ],
  "meshes": [
    {
      "primitives": [
        {
          "attributes": {
            "NORMAL": 1,
            "POSITION": 0,
            "TEXCOORD_0": 2
          },
          "indices": 3,
          "material": 0,
          "mode": 4
        }
      ]
    },
    {
      "primitives": [
        {
          "attributes": {
            "NORMAL": 5,
            "POSITION": 4,
            "TEXCOORD_0": 6
          },
          "indices": 7,
          "material": 1,
          "mode": 4
        }
      ]
    },
    {
      "primitives": [
        {
          "attributes": {
            "NORMAL": 9,
            "POSITION": 8,
            "TEXCOORD_0": 10
          },
          "indices": 11,
          "material": 2,
          "mode": 4
        }
      ]
    },
    {
      "primitives": [
        {
          "attributes": {
            "NORMAL": 13,
            "POSITION": 12,
            "TEXCOORD_0": 14
          },
          "indices": 15,
          "material": 2,
          "mode": 4
        }
      ]
    },
    {
      "primitives": [
        {
          "attributes": {
            "NORMAL": 17,
            "POSITION": 16,
            "TEXCOORD_0": 18
          },
          "indices": 19,
          "material": 3,
          "mode": 4
        }
      ]
    }
  ],
  "nodes": [
    {
      "children": [
        1
      ],
      "name": "RootNode (gltf orientation matrix)",
      "rotation": [
        -0.70710678118654746,
        -0,
        -0,
        0.70710678118654757
      ]
    },
    {
      "children": [
        2
      ],
      "name": "RootNode (model correction matrix)"
    },
    {
      "children": [
        3
      ],
      "name": "root"
    },
    {
      "children": [
        4,
        7,
        10
      ],
      "matrix": [
        1,
        0,
        0,
        0,
        0,
        2.2204460492503131e-16,
        1,
        0,
        0,
        -1,
        2.2204460492503131e-16,
        0,
        0,
        0,
        0,
        1
      ],
      "name": "GLTF_SceneRootNode"
    },
    {
      "children": [
        5,
        6
      ],
      "name": "Cabinet_0"
    },
    {
      "mesh": 0,
      "name": ""
    },
    {
      "mesh": 1,
      "name": ""
    },
    {
      "children": [
        8,
        9
      ],
      "matrix": [
        1,
        0,
        0,
        0,
        0,
        1,
        0,
        0,
        0,
        0,
        1,
        0,
        0.46773192286491394,
        2.7528619766235352,
        -0.22747279703617096,
        1
      ],
      "name": "Towel_1"
    },
    {
      "mesh": 2,
      "name": ""
    },
    {
      "mesh": 3,
      "name": ""
    },
    {
      "children": [
        11
      ],
      "matrix": [
        1,
        0,
        0,
        0,
        0,
        1,
        0,
        0,
        0,
        0,
        1,
        0,
        -0.4679504930973053,
        2.7891845703125,
        -0.23870834708213806,
        1
      ],
      "name": "Glass_2"
    },
    {
      "mesh": 4,
      "name": ""
    }
  ],
  "samplers": [
    {
      "magFilter": 9729,
      "minFilter": 9987,
      "wrapS": 10497,
      "wrapT": 10497
    }
  ],
  "scene": 0,
  "scenes": [
    {
      "name": "OSG_Scene",
      "nodes": [
        0
      ]
    }
  ],
  "textures": [
    {
      "sampler": 0,
      "source": 0
    },
    {
      "sampler": 0,
      "source": 1
    },
    {
      "sampler": 0,
      "source": 2
    }
  ]
}

