{
  "accessors": [
    {
      "bufferView": 2,
      "componentType": 5126,
      "count": 14402,
      "max": [
        29.315624237060547,
        40.294479370117188,
        40.936588287353516
      ],
      "min": [
        -29.315624237060547,
        -15.764715194702148,
        -1.611263632774353
      ],
      "type": "VEC3"
    },
    {
      "bufferView": 2,
      "byteOffset": 172824,
      "componentType": 5126,
      "count": 14402,
      "max": [
        0.99728971719741821,
        0.99952632188796997,
        1
      ],
      "min": [
        -0.99728971719741821,
        -0.99999773502349854,
        -1
      ],
      "type": "VEC3"
    },
    {
      "bufferView": 3,
      "componentType": 5126,
      "count": 14402,
      "max": [
        1,
        0.79677623510360718,
        0.85710161924362183,
        1
      ],
      "min": [
        -1,
        -0.98881375789642334,
        -0.85710382461547852,
        1
      ],
      "type": "VEC4"
    },
    {
      "bufferView": 1,
      "componentType": 5126,
      "count": 14402,
      "max": [
        0.69406801462173462,
        0.77750420570373535
      ],
      "min": [
        0.0020000000949949026,
        0.0020000000949949026
      ],
      "type": "VEC2"
    },
    {
      "bufferView": 0,
      "componentType": 5125,
      "count": 78912,
      "max": [
        14401
      ],
      "min": [
        0
      ],
      "type": "SCALAR"
    },
    {
      "bufferView": 2,
      "byteOffset": 345648,
      "componentType": 5126,
      "count": 10723,
      "max": [
        13.696987152099609,
        21.795070648193359,
        2.7497248649597168
      ],
      "min": [
        -13.696765899658203,
        -9.4495086669921875,
        -18.632776260375977
      ],
      "type": "VEC3"
    },
    {
      "bufferView": 2,
      "byteOffset": 474324,
      "componentType": 5126,
      "count": 10723,
      "max": [
        0.99843108654022217,
        0.99493956565856934,
        0.99999934434890747
      ],
      "min": [
        -0.99358224868774414,
        -0.99493831396102905,
        -0.99997860193252563
      ],
      "type": "VEC3"
    },
    {
      "bufferView": 3,
      "byteOffset": 230432,
      "componentType": 5126,
      "count": 10723,
      "max": [
        1,
        0.99998778104782104,
        0.99849307537078857,
        1
      ],
      "min": [
        -0.99993056058883667,
        -0.9999881386756897,
        -0.9984971284866333,
        1
      ],
      "type": "VEC4"
    },
    {
      "bufferView": 1,
      "byteOffset": 115216,
      "componentType": 5126,
      "count": 10723,
      "max": [
        0.16706791520118713,
        0.98379999399185181
      ],
      "min": [
        0.0052117882296442986,
        0.82239609956741333
      ],
      "type": "VEC2"
    },
    {
      "bufferView": 0,
      "byteOffset": 315648,
      "componentType": 5125,
      "count": 43824,
      "max": [
        10722
      ],
      "min": [
        0
      ],
      "type": "SCALAR"
    },
    {
      "bufferView": 2,
      "byteOffset": 603000,
      "componentType": 5126,
      "count": 1608,
      "max": [
        12.639161109924316,
        20.656688690185547,
        -1.2811737060546875
      ],
      "min": [
        -12.639035224914551,
        -8.3111276626586914,
        -18.804847717285156
      ],
      "type": "VEC3"
    },
    {
      "bufferView": 2,
      "byteOffset": 622296,
      "componentType": 5126,
      "count": 1608,
      "max": [
        0.99841070175170898,
        0.99842488765716553,
        0.99995541572570801
      ],
      "min": [
        -0.99835211038589478,
        -0.9984249472618103,
        -0.99995541572570801
      ],
      "type": "VEC3"
    },
    {
      "bufferView": 3,
      "byteOffset": 402000,
      "componentType": 5126,
      "count": 1608,
      "max": [
        1,
        1,
        0.90985947847366333,
        1
      ],
      "min": [
        -1,
        -1,
        -0.90985953807830811,
        1
      ],
      "type": "VEC4"
    },
    {
      "bufferView": 1,
      "byteOffset": 201000,
      "componentType": 5126,
      "count": 1608,
      "max": [
        0.99405717849731445,
        0.65565764904022217
      ],
      "min": [
        0.69602733850479126,
        0.35483184456825256
      ],
      "type": "VEC2"
    },
    {
      "bufferView": 0,
      "byteOffset": 490944,
      "componentType": 5125,
      "count": 5712,
      "max": [
        1607
      ],
      "min": [
        0
      ],
      "type": "SCALAR"
    },
    {
      "bufferView": 2,
      "byteOffset": 641592,
      "componentType": 5126,
      "count": 13837,
      "max": [
        18.62053108215332,
        26.922328948974609,
        -0.59197235107421875
      ],
      "min": [
        -18.620471954345703,
        -14.576776504516602,
        -38.195991516113281
      ],
      "type": "VEC3"
    },
    {
      "bufferView": 2,
      "byteOffset": 807636,
      "componentType": 5126,
      "count": 13837,
      "max": [
        0.99825537204742432,
        0.99995142221450806,
        0.99997204542160034
      ],
      "min": [
        -0.99825483560562134,
        -0.99995136260986328,
        -0.99913209676742554
      ],
      "type": "VEC3"
    },
    {
      "bufferView": 3,
      "byteOffset": 427728,
      "componentType": 5126,
      "count": 13837,
      "max": [
        0.99999374151229858,
        0.98530137538909912,
        0.91573071479797363,
        1
      ],
      "min": [
        -0.98726266622543335,
        -0.98531532287597656,
        -0.8835570216178894,
        1
      ],
      "type": "VEC4"
    },
    {
      "bufferView": 1,
      "byteOffset": 213864,
      "componentType": 5126,
      "count": 13837,
      "max": [
        0.98095566034317017,
        0.98539596796035767
      ],
      "min": [
        0.68339055776596069,
        0.034697812050580978
      ],
      "type": "VEC2"
    },
    {
      "bufferView": 0,
      "byteOffset": 513792,
      "componentType": 5125,
      "count": 69192,
      "max": [
        13836
      ],
      "min": [
        0
      ],
      "type": "SCALAR"
    }
  ],
  "asset": {
    "extras": {
      "author": "lampyre3d (https://sketchfab.com/lampyre3d)",
      "license": "CC-BY-4.0 (http://creativecommons.org/licenses/by/4.0/)",
      "source": "https://sketchfab.com/3d-models/chair-design-scandinavian-8bd8b3cda5bb465f9e6cb3d298c3f1ad",
      "title": "chair design scandinavian"
    },
    "generator": "Sketchfab-9.31.0",
    "version": "2.0"
  },
  "bufferViews": [
    {
      "buffer": 0,
      "byteLength": 790560,
      "byteOffset": 0,
      "name": "floatBufferViews",
      "target": 34963
    },
    {
      "buffer": 0,
      "byteLength": 324560,
      "byteOffset": 790560,
      "byteStride": 8,
      "name": "floatBufferViews",
      "target": 34962
    },
    {
      "buffer": 0,
      "byteLength": 973680,
      "byteOffset": 1115120,
      "byteStride": 12,
      "name": "floatBufferViews",
      "target": 34962
    },
    {
      "buffer": 0,
      "byteLength": 649120,
      "byteOffset": 2088800,
      "byteStride": 16,
      "name": "floatBufferViews",
      "target": 34962
    }
  ],
  "buffers": [
    {
      "byteLength": 2737920,
      "uri": "scene.bin"
    }
  ],
  "images": [
    {
      "uri": "textures/tissu_2_baseColor.jpeg"
    },
    {
      "uri": "textures/tissu_2_metallicRoughness.png"
    },
    {
      "uri": "textures/tissu_2_normal.png"
    },
    {
      "uri": "textures/chrome_mat_baseColor.jpeg"
    },
    {
      "uri": "textures/chrome_mat_metallicRoughness.png"
    },
    {
      "uri": "textures/chrome_mat_normal.png"
    },
    {
      "uri": "textures/Noir_amt_baseColor.jpeg"
    },
    {
      "uri": "textures/Noir_amt_metallicRoughness.png"
    },
    {
      "uri": "textures/Noir_amt_normal.png"
    },
    {
      "uri": "textures/material_baseColor.jpeg"
    },
    {
      "uri": "textures/material_metallicRoughness.png"
    }
  ],
  "materials": [
    {
      "doubleSided": true,
      "name": "tissu_2",
      "normalTexture": {
        "index": 2,
        "scale": 1,
        "texCoord": 0
      },
      "occlusionTexture": {
        "index": 1,
        "strength": 1,
        "texCoord": 0
      },
      "pbrMetallicRoughness": {
        "baseColorFactor": [
          1,
          1,
          1,
          1
        ],
        "baseColorTexture": {
          "index": 0,
          "texCoord": 0
        },
        "metallicFactor": 1,
        "metallicRoughnessTexture": {
          "index": 1,
          "texCoord": 0
        },
        "roughnessFactor": 1
      }
    },
    {
      "doubleSided": true,
      "name": "chrome_mat",
      "normalTexture": {
        "index": 5,
        "scale": 1,
        "texCoord": 0
      },
      "occlusionTexture": {
        "index": 4,
        "strength": 1,
        "texCoord": 0
      },
      "pbrMetallicRoughness": {
        "baseColorFactor": [
          1,
          1,
          1,
          1
        ],
        "baseColorTexture": {
          "index": 3,
          "texCoord": 0
        },
        "metallicFactor": 1,
        "metallicRoughnessTexture": {
          "index": 4,
          "texCoord": 0
        },
        "roughnessFactor": 1
      }
    },
    {
      "doubleSided": true,
      "name": "Noir_amt",
      "normalTexture": {
        "index": 8,
        "scale": 1,
        "texCoord": 0
      },
      "occlusionTexture": {
        "index": 7,
        "strength": 1,
        "texCoord": 0
      },
      "pbrMetallicRoughness": {
        "baseColorFactor": [
          1,
          1,
          1,
          1
        ],
        "baseColorTexture": {
          "index": 6,
          "texCoord": 0
        },
        "metallicFactor": 1,
        "metallicRoughnessTexture": {
          "index": 7,
          "texCoord": 0
        },
        "roughnessFactor": 1
      }
    },
    {
      "doubleSided": true,
      "name": "material",
      "normalTexture": {
        "index": 2,
        "scale": 1,
        "texCoord": 0
      },
      "occlusionTexture": {
        "index": 10,
        "strength": 1,
        "texCoord": 0
      },
      "pbrMetallicRoughness": {
        "baseColorFactor": [
          1,
          1,
          1,
          1
        ],
        "baseColorTexture": {
          "index": 9,
          "texCoord": 0
        },
        "metallicFactor": 1,
        "metallicRoughnessTexture": {
          "index": 10,
          "texCoord": 0
        },
        "roughnessFactor": 1
      }
    }
  ],
  "meshes": [
    {
      "name": "fauteuil scandi_tissu 2_0",
      "primitives": [
        {
          "attributes": {
            "NORMAL": 1,
            "POSITION": 0,
            "TANGENT": 2,
            "TEXCOORD_0": 3
          },
          "indices": 4,
          "material": 0,
          "mode": 4
        }
      ]
    },
    {
      "name": "fauteuil scandi_chrome mat_0",
      "primitives": [
        {
          "attributes": {
            "NORMAL": 6,
            "POSITION": 5,
            "TANGENT": 7,
            "TEXCOORD_0": 8
          },
          "indices": 9,
          "material": 1,
          "mode": 4
        }
      ]
    },
    {
      "name": "fauteuil scandi_Noir amt_0",
      "primitives": [
        {
          "attributes": {
            "NORMAL": 11,
            "POSITION": 10,
            "TANGENT": 12,
            "TEXCOORD_0": 13
          },
          "indices": 14,
          "material": 2,
          "mode": 4
        }
      ]
    },
    {
      "name": "fauteuil scandi_oak_0",
      "primitives": [
        {
          "attributes": {
            "NORMAL": 16,
            "POSITION": 15,
            "TANGENT": 17,
            "TEXCOORD_0": 18
          },
          "indices": 19,
          "material": 3,
          "mode": 4
        }
      ]
    }
  ],
  "nodes": [
    {
      "children": [
        1
      ],
      "name": "RootNode (gltf orientation matrix)",
      "rotation": [
        -0.70710678118654746,
        -0,
        -0,
        0.70710678118654757
      ]
    },
    {
      "children": [
        2
      ],
      "matrix": [
        0.011111111380159855,
        0,
        0,
        0,
        0,
        0.011111111380159855,
        0,
        0,
        0,
        0,
        0.011111111380159855,
        0,
        0,
        0,
        0,
        1
      ],
      "name": "RootNode (model correction matrix)"
    },
    {
      "children": [
        3
      ],
      "matrix": [
        1,
        0,
        0,
        0,
        0,
        0,
        1,
        0,
        0,
        -1,
        0,
        0,
        0,
        0,
        0,
        1
      ],
      "name": "8f0224028f6e4ba8807d9eac6d99d266.fbx"
    },
    {
      "children": [
        4
      ],
      "name": "RootNode"
    },
    {
      "children": [
        5
      ],
      "matrix": [
        7.5497901264043321e-08,
        5.5511151231257827e-17,
        0.99999999999999711,
        0,
        0.99999999999999711,
        0,
        -7.5497901264043321e-08,
        0,
        -5.5511151231257827e-17,
        1,
        0,
        0,
        150.50325012207031,
        57.751071929931641,
        1241.2425537109375,
        1
      ],
      "name": "fauteuil scandi"
    },
    {
      "children": [
        6,
        7,
        8,
        9
      ],
      "matrix": [
        1,
        0,
        -0,
        0,
        0,
        1,
        0,
        0,
        0,
        0,
        1,
        0,
        -9.2597247203229927e-07,
        -12.264877319335938,
        -19.662662506103516,
        1
      ],
      "name": ""
    },
    {
      "mesh": 0,
      "name": "fauteuil scandi_tissu 2_0"
    },
    {
      "mesh": 1,
      "name": "fauteuil scandi_chrome mat_0"
    },
    {
      "mesh": 2,
      "name": "fauteuil scandi_Noir amt_0"
    },
    {
      "mesh": 3,
      "name": "fauteuil scandi_oak_0"
    }
  ],
  "samplers": [
    {
      "magFilter": 9729,
      "minFilter": 9987,
      "wrapS": 10497,
      "wrapT": 10497
    }
  ],
  "scene": 0,
  "scenes": [
    {
      "name": "OSG_Scene",
      "nodes": [
        0
      ]
    }
  ],
  "textures": [
    {
      "sampler": 0,
      "source": 0
    },
    {
      "sampler": 0,
      "source": 1
    },
    {
      "sampler": 0,
      "source": 2
    },
    {
      "sampler": 0,
      "source": 3
    },
    {
      "sampler": 0,
      "source": 4
    },
    {
      "sampler": 0,
      "source": 5
    },
    {
      "sampler": 0,
      "source": 6
    },
    {
      "sampler": 0,
      "source": 7
    },
    {
      "sampler": 0,
      "source": 8
    },
    {
      "sampler": 0,
      "source": 9
    },
    {
      "sampler": 0,
      "source": 10
    }
  ]
}

