{
  "accessors": [
    {
      "bufferView": 2,
      "componentType": 5126,
      "count": 193,
      "max": [
        1.4508414268493652,
        1.0353655815124512,
        1.450840950012207
      ],
      "min": [
        -1.4508414268493652,
        0.63649487495422363,
        -1.450840950012207
      ],
      "type": "VEC3"
    },
    {
      "bufferView": 2,
      "byteOffset": 2316,
      "componentType": 5126,
      "count": 193,
      "max": [
        0.99144452810287476,
        0,
        0.99144464731216431
      ],
      "min": [
        -0.99144464731216431,
        -1,
        -0.99144464731216431
      ],
      "type": "VEC3"
    },
    {
      "bufferView": 1,
      "componentType": 5126,
      "count": 193,
      "max": [
        0.578125,
        0.23124998807907104
      ],
      "min": [
        0.42187502980232239,
        0.07500004768371582
      ],
      "type": "VEC2"
    },
    {
      "bufferView": 0,
      "componentType": 5125,
      "count": 648,
      "max": [
        192
      ],
      "min": [
        0
      ],
      "type": "SCALAR"
    },
    {
      "bufferView": 2,
      "byteOffset": 4632,
      "componentType": 5126,
      "count": 390,
      "max": [
        1.7052726745605469,
        1.3017823696136475,
        1.7052723169326782
      ],
      "min": [
        -1.7052721977233887,
        0.87137687206268311,
        -1.7052723169326782
      ],
      "type": "VEC3"
    },
    {
      "bufferView": 2,
      "byteOffset": 9312,
      "componentType": 5126,
      "count": 390,
      "max": [
        1,
        1,
        1
      ],
      "min": [
        -1,
        -1,
        -1
      ],
      "type": "VEC3"
    },
    {
      "bufferView": 1,
      "byteOffset": 1544,
      "componentType": 5126,
      "count": 390,
      "max": [
        0.65625,
        1
      ],
      "min": [
        0.34375005960464478,
        8.9406967163085938e-08
      ],
      "type": "VEC2"
    },
    {
      "bufferView": 0,
      "byteOffset": 2592,
      "componentType": 5125,
      "count": 1224,
      "max": [
        389
      ],
      "min": [
        0
      ],
      "type": "SCALAR"
    },
    {
      "bufferView": 2,
      "byteOffset": 13992,
      "componentType": 5126,
      "count": 394,
      "max": [
        -1.1404579877853394,
        1.2816919088363647,
        0.95501810312271118
      ],
      "min": [
        -9.4663000106811523,
        0.97298890352249146,
        -1.1954083442687988
      ],
      "type": "VEC3"
    },
    {
      "bufferView": 2,
      "byteOffset": 18720,
      "componentType": 5126,
      "count": 394,
      "max": [
        0.056267503648996353,
        0.99989485740661621,
        0.92456358671188354
      ],
      "min": [
        -0.97082477807998657,
        -0.99998044967651367,
        -0.99899512529373169
      ],
      "type": "VEC3"
    },
    {
      "bufferView": 1,
      "byteOffset": 4664,
      "componentType": 5126,
      "count": 394,
      "max": [
        0.62642151117324829,
        1
      ],
      "min": [
        0.125,
        -8.338881585245872e-09
      ],
      "type": "VEC2"
    },
    {
      "bufferView": 0,
      "byteOffset": 7488,
      "componentType": 5125,
      "count": 1908,
      "max": [
        393
      ],
      "min": [
        0
      ],
      "type": "SCALAR"
    },
    {
      "bufferView": 2,
      "byteOffset": 23448,
      "componentType": 5126,
      "count": 83,
      "max": [
        0.18130883574485779,
        4.5361442565917969,
        0.18130886554718018
      ],
      "min": [
        -0.18130889534950256,
        1.1463689804077148,
        -0.18130892515182495
      ],
      "type": "VEC3"
    },
    {
      "bufferView": 2,
      "byteOffset": 24444,
      "componentType": 5126,
      "count": 83,
      "max": [
        1,
        1,
        1
      ],
      "min": [
        -1,
        -1,
        -1
      ],
      "type": "VEC3"
    },
    {
      "bufferView": 1,
      "byteOffset": 7816,
      "componentType": 5126,
      "count": 83,
      "max": [
        0.65625,
        1
      ],
      "min": [
        0.34374997019767761,
        -7.4505805969238281e-08
      ],
      "type": "VEC2"
    },
    {
      "bufferView": 0,
      "byteOffset": 15120,
      "componentType": 5125,
      "count": 234,
      "max": [
        82
      ],
      "min": [
        0
      ],
      "type": "SCALAR"
    },
    {
      "bufferView": 2,
      "byteOffset": 25440,
      "componentType": 5126,
      "count": 563,
      "max": [
        1.3658902645111084,
        5.1279335021972656,
        1.4193940162658691
      ],
      "min": [
        -1.3658906221389771,
        3.8999919891357422,
        -1.3123874664306641
      ],
      "type": "VEC3"
    },
    {
      "bufferView": 2,
      "byteOffset": 32196,
      "componentType": 5126,
      "count": 563,
      "max": [
        1,
        1,
        1
      ],
      "min": [
        -1,
        -0.99953359365463257,
        -1
      ],
      "type": "VEC3"
    },
    {
      "bufferView": 1,
      "byteOffset": 8480,
      "componentType": 5126,
      "count": 563,
      "max": [
        1,
        1
      ],
      "min": [
        0,
        -7.4505805969238281e-08
      ],
      "type": "VEC2"
    },
    {
      "bufferView": 0,
      "byteOffset": 16056,
      "componentType": 5125,
      "count": 2400,
      "max": [
        562
      ],
      "min": [
        0
      ],
      "type": "SCALAR"
    },
    {
      "bufferView": 2,
      "byteOffset": 38952,
      "componentType": 5126,
      "count": 489,
      "max": [
        0.99230015277862549,
        2.7175459861755371,
        0.99230027198791504
      ],
      "min": [
        -0.99230039119720459,
        1.4841065406799316,
        -0.99230062961578369
      ],
      "type": "VEC3"
    },
    {
      "bufferView": 2,
      "byteOffset": 44820,
      "componentType": 5126,
      "count": 489,
      "max": [
        0.99159431457519531,
        0.99218863248825073,
        0.99159395694732666
      ],
      "min": [
        -0.99159413576126099,
        -0.93568521738052368,
        -0.99159395694732666
      ],
      "type": "VEC3"
    },
    {
      "bufferView": 1,
      "byteOffset": 12984,
      "componentType": 5126,
      "count": 489,
      "max": [
        0.65625,
        1
      ],
      "min": [
        0.34374994039535522,
        0.31249997019767761
      ],
      "type": "VEC2"
    },
    {
      "bufferView": 0,
      "byteOffset": 25656,
      "componentType": 5125,
      "count": 1680,
      "max": [
        488
      ],
      "min": [
        0
      ],
      "type": "SCALAR"
    },
    {
      "bufferView": 2,
      "byteOffset": 50688,
      "componentType": 5126,
      "count": 394,
      "max": [
        5.3194160461425781,
        1.2816919088363647,
        8.2356014251708984
      ],
      "min": [
        -0.4603613018989563,
        0.97298890352249146,
        0.72230112552642822
      ],
      "type": "VEC3"
    },
    {
      "bufferView": 2,
      "byteOffset": 55416,
      "componentType": 5126,
      "count": 394,
      "max": [
        0.98969405889511108,
        0.99989479780197144,
        0.99584764242172241
      ],
      "min": [
        -0.8486943244934082,
        -0.99998050928115845,
        -0.40098369121551514
      ],
      "type": "VEC3"
    },
    {
      "bufferView": 1,
      "byteOffset": 16896,
      "componentType": 5126,
      "count": 394,
      "max": [
        0.62642151117324829,
        1
      ],
      "min": [
        0.125,
        -8.338881585245872e-09
      ],
      "type": "VEC2"
    },
    {
      "bufferView": 0,
      "byteOffset": 32376,
      "componentType": 5125,
      "count": 1908,
      "max": [
        393
      ],
      "min": [
        0
      ],
      "type": "SCALAR"
    },
    {
      "bufferView": 2,
      "byteOffset": 60144,
      "componentType": 5126,
      "count": 394,
      "max": [
        4.923614501953125,
        1.2816919088363647,
        -0.39370065927505493
      ],
      "min": [
        -0.13435924053192139,
        0.97298890352249146,
        -8.3857755661010742
      ],
      "type": "VEC3"
    },
    {
      "bufferView": 2,
      "byteOffset": 64872,
      "componentType": 5126,
      "count": 394,
      "max": [
        0.95941746234893799,
        0.99989485740661621,
        0.47226756811141968
      ],
      "min": [
        -0.65717381238937378,
        -0.99998044967651367,
        -0.82281309366226196
      ],
      "type": "VEC3"
    },
    {
      "bufferView": 1,
      "byteOffset": 20048,
      "componentType": 5126,
      "count": 394,
      "max": [
        0.62642151117324829,
        1
      ],
      "min": [
        0.125,
        -8.338881585245872e-09
      ],
      "type": "VEC2"
    },
    {
      "bufferView": 0,
      "byteOffset": 40008,
      "componentType": 5125,
      "count": 1908,
      "max": [
        393
      ],
      "min": [
        0
      ],
      "type": "SCALAR"
    }
  ],
  "asset": {
    "extras": {
      "author": "Ankush4135 (https://sketchfab.com/Ankush4135)",
      "license": "CC-BY-4.0 (http://creativecommons.org/licenses/by/4.0/)",
      "source": "https://sketchfab.com/3d-models/ceiling-fan-eb6f660bf970485ca9b22ddc12b565b2",
      "title": "Ceiling Fan"
    },
    "generator": "Sketchfab-7.91.0",
    "version": "2.0"
  },
  "bufferViews": [
    {
      "buffer": 0,
      "byteLength": 47640,
      "byteOffset": 0,
      "name": "floatBufferViews",
      "target": 34963
    },
    {
      "buffer": 0,
      "byteLength": 23200,
      "byteOffset": 47640,
      "byteStride": 8,
      "name": "floatBufferViews",
      "target": 34962
    },
    {
      "buffer": 0,
      "byteLength": 69600,
      "byteOffset": 70840,
      "byteStride": 12,
      "name": "floatBufferViews",
      "target": 34962
    }
  ],
  "buffers": [
    {
      "byteLength": 140440,
      "uri": "scene.bin"
    }
  ],
  "materials": [
    {
      "doubleSided": true,
      "emissiveFactor": [
        0,
        0,
        0
      ],
      "name": "lambert1",
      "pbrMetallicRoughness": {
        "baseColorFactor": [
          0.68204370655243551,
          0.68204370655243551,
          0.68204370655243551,
          1
        ],
        "metallicFactor": 0.2393125057220459,
        "roughnessFactor": 0.070562505722045893
      }
    }
  ],
  "meshes": [
    {
      "name": "polySurface2_lambert1_0",
      "primitives": [
        {
          "attributes": {
            "NORMAL": 1,
            "POSITION": 0,
            "TEXCOORD_0": 2
          },
          "indices": 3,
          "material": 0,
          "mode": 4
        }
      ]
    },
    {
      "name": "polySurface1_lambert1_0",
      "primitives": [
        {
          "attributes": {
            "NORMAL": 5,
            "POSITION": 4,
            "TEXCOORD_0": 6
          },
          "indices": 7,
          "material": 0,
          "mode": 4
        }
      ]
    },
    {
      "name": "pCube1_lambert1_0",
      "primitives": [
        {
          "attributes": {
            "NORMAL": 9,
            "POSITION": 8,
            "TEXCOORD_0": 10
          },
          "indices": 11,
          "material": 0,
          "mode": 4
        }
      ]
    },
    {
      "name": "pCylinder2_lambert1_0",
      "primitives": [
        {
          "attributes": {
            "NORMAL": 13,
            "POSITION": 12,
            "TEXCOORD_0": 14
          },
          "indices": 15,
          "material": 0,
          "mode": 4
        }
      ]
    },
    {
      "name": "pCylinder3_lambert1_0",
      "primitives": [
        {
          "attributes": {
            "NORMAL": 17,
            "POSITION": 16,
            "TEXCOORD_0": 18
          },
          "indices": 19,
          "material": 0,
          "mode": 4
        }
      ]
    },
    {
      "name": "pCylinder4_lambert1_0",
      "primitives": [
        {
          "attributes": {
            "NORMAL": 21,
            "POSITION": 20,
            "TEXCOORD_0": 22
          },
          "indices": 23,
          "material": 0,
          "mode": 4
        }
      ]
    },
    {
      "name": "pCube2_lambert1_0",
      "primitives": [
        {
          "attributes": {
            "NORMAL": 25,
            "POSITION": 24,
            "TEXCOORD_0": 26
          },
          "indices": 27,
          "material": 0,
          "mode": 4
        }
      ]
    },
    {
      "name": "pCube3_lambert1_0",
      "primitives": [
        {
          "attributes": {
            "NORMAL": 29,
            "POSITION": 28,
            "TEXCOORD_0": 30
          },
          "indices": 31,
          "material": 0,
          "mode": 4
        }
      ]
    }
  ],
  "nodes": [
    {
      "children": [
        1
      ],
      "name": "RootNode (gltf orientation matrix)",
      "rotation": [
        -0.70710678118654746,
        -0,
        -0,
        0.70710678118654757
      ]
    },
    {
      "children": [
        2
      ],
      "name": "RootNode (model correction matrix)"
    },
    {
      "children": [
        3
      ],
      "matrix": [
        1,
        0,
        0,
        0,
        0,
        0,
        1,
        0,
        0,
        -1,
        0,
        0,
        0,
        0,
        0,
        1
      ],
      "name": "3cd05ffa86c7473781f556c3714641f0.fbx"
    },
    {
      "children": [
        4,
        6,
        8,
        10,
        12,
        14,
        16,
        18
      ],
      "name": "RootNode"
    },
    {
      "children": [
        5
      ],
      "name": "polySurface2"
    },
    {
      "mesh": 0,
      "name": "polySurface2_lambert1_0"
    },
    {
      "children": [
        7
      ],
      "name": "polySurface1"
    },
    {
      "mesh": 1,
      "name": "polySurface1_lambert1_0"
    },
    {
      "children": [
        9
      ],
      "name": "pCube1"
    },
    {
      "mesh": 2,
      "name": "pCube1_lambert1_0"
    },
    {
      "children": [
        11
      ],
      "name": "pCylinder2"
    },
    {
      "mesh": 3,
      "name": "pCylinder2_lambert1_0"
    },
    {
      "children": [
        13
      ],
      "name": "pCylinder3"
    },
    {
      "mesh": 4,
      "name": "pCylinder3_lambert1_0"
    },
    {
      "children": [
        15
      ],
      "name": "pCylinder4"
    },
    {
      "mesh": 5,
      "name": "pCylinder4_lambert1_0"
    },
    {
      "children": [
        17
      ],
      "name": "pCube2"
    },
    {
      "mesh": 6,
      "name": "pCube2_lambert1_0"
    },
    {
      "children": [
        19
      ],
      "name": "pCube3"
    },
    {
      "mesh": 7,
      "name": "pCube3_lambert1_0"
    }
  ],
  "scene": 0,
  "scenes": [
    {
      "name": "OSG_Scene",
      "nodes": [
        0
      ]
    }
  ]
}

